<svg width="10" height="10" viewBox="0 0 10 10" xmlns="http://www.w3.org/2000/svg">
<path d="M3.07647 9.97895L3.09314 9.94624C2.27355 9.52898 2.00962 8.78639 1.9346 8.23387C1.92071 8.08624 1.90497 7.66897 2.09945 7.15181L4.23594 2.56811L4.2452 2.54689L4.25446 2.56811L6.39095 7.15181C6.58266 7.66279 6.56969 8.07651 6.5558 8.22856C6.48171 8.78285 6.2187 9.52897 5.39448 9.94712L5.41022 9.97895H9.96381L9.97956 9.94801C9.71655 9.69782 9.47484 9.24078 9.47484 9.24078L5.03608 0L5.0046 0.0132603L0.54732 9.2399C0.54732 9.2399 0.325058 9.66512 0 9.94889L0.0148174 9.97806H3.07647V9.97895ZM3.89051 7.02451L4.2202 8.30724L4.54989 7.02451L5.89364 6.7098L4.54989 6.39508L4.2202 5.11235L3.89051 6.39508L2.54675 6.7098L3.89051 7.02451Z" fill="#1a1a1a"/>
</svg>
