<?xml version="1.0" encoding="utf-8"?>
<!-- Generator: Adobe Illustrator 28.1.0, SVG Export Plug-In . SVG Version: 6.00 Build 0)  -->
<svg version="1.0" id="Layer_1" xmlns="http://www.w3.org/2000/svg" xmlns:xlink="http://www.w3.org/1999/xlink" x="0px" y="0px"
	 viewBox="0 0 530 47" style="enable-background:new 0 0 530 47;" xml:space="preserve">
<path d="M58.5,38c0,3.3,0.1,6.5,1,8.9h-9.1c0.9-2.4,1-5.6,1-8.9V13.6c0-1.5,0.1-3,0.1-4.3c-0.4,1-1.1,2.1-1.9,3.4l-15.1,24h-0.1
	L19.2,12.9c-0.6-0.9-1.2-2-1.7-3.1c0.1,1.7,0.2,3.6,0.2,5.4V38c0,3.3,0.1,6.5,1,8.9H9.5c0.9-2.4,1-5.6,1-8.9v-30
	c0-3.2-0.1-6.4-1-8.8H19l12.1,19.1c1.6,2.6,2.9,4.8,3.6,6.2c0.9-1.6,2.1-3.6,3.6-6l8.8-14c1.8-2.9,2.6-4.1,2.7-5.4h9.6
	c-0.9,2.4-1,5.6-1,8.8V38z"/>
<path d="M97.9,23.7c0-15,10.3-25.4,25.3-25.4c14.4,0,24,9.5,24,24c0,14.9-10.1,25.3-25.2,25.3C107.6,47.6,97.9,38.3,97.9,23.7z
	 M139,24.1c0-11.1-7.2-19.4-17.4-19.4c-9.5,0-15.6,7.3-15.6,17.2c0,11,7.1,19.3,17.5,19.3C132.8,41.2,139,33.7,139,24.1z"/>
<path d="M228.1-0.9c-0.9,2.4-1,5.6-1,8.8v39h-5.7L196.2,15c-0.7-0.9-1.4-1.9-1.9-2.9c0.1,1.1,0.1,2.1,0.1,3.1V38
	c0,3.3,0.1,6.5,1,8.9h-9.1c0.9-2.4,1-5.6,1-8.9V5.2l-4.4-6v-0.1h10.4l24.5,31c0.9,1.1,1.6,2.3,2.3,3.4c-0.1-1-0.1-2.1-0.1-3.6V7.9
	c0-3.2-0.1-6.4-1-8.8H228.1z"/>
<path d="M300.1,13.9c0,12.7-9.7,16-20.6,16h-2.9V38c0,3.3,0.1,6.5,1,8.9h-9.8c0.9-2.4,1-5.6,1-8.9v-30c0-3.2-0.1-6.4-1-8.8h13.1
	C292.4-0.9,300.1,2.7,300.1,13.9z M292.1,14.4c0-6.1-3.9-9.6-12.2-9.6h-3.3v19.4h2.7C285.6,24.1,292.1,22.6,292.1,14.4z"/>
<path d="M338.7,26.8V7.9c0-3.2-0.1-6.4-1-8.8h9.8c-0.9,2.4-1,5.6-1,8.8v18c0,6.9,0.9,15.3,11.6,15.3c10.1,0,10.8-8.3,10.8-15.3v-18
	c0-3.2-0.1-6.4-1-8.8h9.1c-0.9,2.4-1,5.6-1,8.8v19.8c0,11.3-5.6,19.9-18.7,19.9C342,47.6,338.7,37.6,338.7,26.8z"/>
<path d="M444.3,46.9l-11.9-18.8c-1.6,0.1-3.4,0.1-4.6,0.1h-2.2V38c0,3.3,0.1,6.5,1,8.9h-9.9c0.9-2.4,1.1-5.6,1.1-8.9v-30
	c0-3.2-0.1-6.4-1.1-8.8h13.7c8.8,0,18.8,2.1,18.8,13.8c0,7.8-4.2,12.3-8.9,14l8.3,12.3c1.8,2.7,3.9,5.5,5.8,7.7H444.3z M429.5,22.5
	c5.6,0,11.7-1.1,11.7-9.1c0-7.6-5.9-8.7-12.5-8.7h-3.1v17.8H429.5z"/>
<path d="M520.5,39l-1.1,7.9H490c0.9-2.4,1-5.6,1-8.9v-30c0-3.2-0.1-6.4-1-8.8h28.5v7.6c-3.3-1.4-6-1.9-11.2-1.9h-8.5v13.6h15.7v7
	c-2.4-0.9-6.4-1.3-9.6-1.3h-6.1v17h10.3C514.3,41.1,517.3,40.3,520.5,39z"/>
</svg>
