<svg width="178" height="41" viewBox="0 0 178 41" fill="none" xmlns="http://www.w3.org/2000/svg">
<path d="M89.0213 40.7549C35.8619 40.7549 0.84375 32.6347 0.84375 20.7036C0.84375 8.7725 36.0926 0.652344 89.0213 0.652344C141.95 0.652344 177.143 8.78173 177.143 20.7036C177.143 32.6255 142.144 40.7549 89.0213 40.7549Z" fill="#1E1E1E"></path>
<path d="M46.0425 29.7462V18.2396C46.0517 16.6432 45.1751 15.8035 43.8002 15.8035C42.4253 15.8035 41.5764 16.8001 41.5672 18.3964V29.737H36.2891V18.4333C36.2891 13.9949 39.0481 11.1621 43.0067 11.1621C46.0794 11.1621 48.1187 12.8415 48.6354 14.4748C49.1521 12.8415 51.1914 11.1621 54.2734 11.1621C58.232 11.1621 60.991 13.9949 60.991 18.4333V29.737H55.7129V18.3964C55.7221 16.8001 54.8455 15.8035 53.4706 15.8035C52.0957 15.8035 51.2375 16.6432 51.2375 18.2396V29.7462H46.0425Z" fill="white"></path>
<path d="M92.8359 20.6849C92.8359 23.2871 94.7922 25.3171 97.4312 25.3171C100.07 25.3171 101.98 23.2778 101.98 20.6849C101.98 18.092 99.9964 16.0527 97.4312 16.0527C94.866 16.0527 92.8359 18.092 92.8359 20.6849Z" fill="white"></path>
<path d="M127.72 20.7223C127.72 23.3152 129.676 25.3545 132.315 25.3545C134.954 25.3545 136.864 23.3152 136.864 20.7223C136.864 18.1294 134.908 16.0809 132.315 16.0809C129.722 16.0809 127.72 18.1202 127.72 20.7223ZM122.414 20.6854C122.414 15.2135 126.769 11.1719 132.324 11.1719C137.879 11.1719 142.198 15.2135 142.198 20.6854C142.198 26.1573 137.842 30.2358 132.324 30.2358C126.806 30.2358 122.414 26.2034 122.414 20.6854Z" fill="white"></path>
<path d="M108.595 29.7438V11.6487H113.07L113.633 14.1678C114.233 12.3316 115.876 11.252 117.629 11.252C119.105 11.252 120.508 12.0178 121.301 12.9683L118.902 17.4067C118.422 16.8438 117.426 16.3271 116.503 16.3271C115.34 16.3271 113.864 17.0099 113.864 18.6062V29.753H108.586L108.595 29.7438Z" fill="white"></path>
<path d="M97.4298 30.226C91.8749 30.226 87.5195 26.1844 87.5195 20.6756C87.5195 15.1668 91.8749 11.1621 97.4298 11.1621C100.189 11.1621 102.302 12.1218 103.824 13.5612L100.706 17.4368C99.8843 16.5786 98.7309 16.0434 97.4298 16.0434C94.7908 16.0434 92.8345 18.0827 92.8345 20.6756C92.8345 23.2685 94.7908 25.3078 97.4298 25.3078C98.7493 25.3078 99.9028 24.7818 100.715 23.9237L103.815 27.8269C102.219 29.2664 100.143 30.226 97.4206 30.226" fill="#3896DD"></path>
<path d="M83.1239 18.3184H65.8594V23.0705H83.1239V18.3184Z" fill="white"></path>
</svg>
