<svg xmlns="http://www.w3.org/2000/svg" fill="none" viewBox="0 0 131 70" height="70" width="131">
<path fill="black" d="M65.4991 2.90969C48.7135 2.90969 32.9273 6.3123 21.0532 12.4903C15.3339 15.4663 10.8504 18.9185 7.73117 22.7497C4.55607 26.6489 2.94618 30.7706 2.94618 34.9991C2.94618 39.2275 4.55607 43.3493 7.73117 47.2485C10.8504 51.0796 15.3339 54.5319 21.0532 57.5078C32.9291 63.6859 48.7135 67.0885 65.4991 67.0885C82.2847 67.0885 98.0709 63.6859 109.945 57.5078C115.666 54.5319 120.148 51.0796 123.269 47.2485C126.444 43.3493 128.054 39.2275 128.054 34.9991C128.054 30.7706 126.444 26.6489 123.269 22.7497C120.148 18.9185 115.666 15.4663 109.945 12.4903C98.069 6.3123 82.2847 2.90969 65.4991 2.90969ZM65.4991 70C48.1607 70 31.8366 66.4502 19.5345 60.0055C13.4746 56.831 8.70269 53.1157 5.35078 48.9645C1.80158 44.565 0 39.8676 0 35.0009C0 30.1343 1.80158 25.435 5.35264 21.0355C8.70455 16.8843 13.4765 13.169 19.5364 9.99448C31.8385 3.54975 48.1626 0 65.4991 0C82.8356 0 99.1615 3.54975 111.462 9.99448C117.522 13.169 122.294 16.8843 125.646 21.0355C129.198 25.435 130.998 30.1343 130.998 35.0009C130.998 39.8676 129.197 44.565 125.646 48.9645C122.294 53.1157 117.522 56.831 111.462 60.0055C99.1596 66.4502 82.8374 70 65.4991 70ZM34.1623 19.2363C35.0166 19.24 35.9304 19.3467 36.6097 19.5251L36.606 19.5269C36.7028 19.5361 36.7958 19.5895 36.8665 19.6759C36.9335 19.7605 36.9726 19.8617 36.9726 19.9555L36.9633 21.929C36.9633 22.1148 36.8126 22.2601 36.6209 22.2601C36.5818 22.2601 36.5427 22.2527 36.5129 22.2435C36.0421 22.1092 35.4707 22.0393 34.8137 22.0357H34.8007C33.3806 22.0357 32.6864 22.9921 32.6771 24.9582L32.6715 26.9777C33.0512 26.8821 33.4476 26.8324 33.8571 26.8324H33.8794C34.6071 26.8361 35.3851 26.9281 35.9639 27.0789C36.1556 27.0973 36.2989 27.2978 36.2989 27.4706L36.2915 29.148C36.2915 29.3228 36.15 29.4589 35.9713 29.4589C35.9341 29.4589 35.8988 29.4534 35.8708 29.4442C35.4726 29.332 34.9887 29.2713 34.434 29.2694H34.4229C33.295 29.2694 32.7162 29.9941 32.6529 31.4802L32.6287 37.0292L32.6995 44.8589C32.6995 45.0631 32.5096 45.2507 32.2993 45.2507L29.4257 45.2378C29.2173 45.236 29.0293 45.0484 29.0293 44.8405L29.1335 37.0164L29.1577 31.5207C29.1037 30.0051 28.5231 29.2694 27.3878 29.2694H27.3766C26.8201 29.2713 26.3381 29.3301 25.9472 29.4423C25.9119 29.4534 25.8765 29.4589 25.8393 29.4589C25.6606 29.4589 25.5192 29.3228 25.5192 29.148L25.5117 27.4706C25.5099 27.2978 25.655 27.0991 25.8467 27.0789C26.4274 26.9281 27.2035 26.8361 27.9312 26.8324H27.9536C28.3779 26.8324 28.7873 26.8858 29.1782 26.9888L29.1838 24.7007C29.2024 20.6709 31.754 19.2363 34.1363 19.2363H34.1623ZM63.6751 34.3833C65.4134 34.6555 67.2113 34.9387 68.6313 35.702L68.6294 35.7057C70.2859 36.5941 71.0917 37.9809 71.0917 39.9397C71.0917 41.6796 70.3101 43.1381 68.8342 44.1571C67.4346 45.1227 65.5083 45.6321 63.2638 45.6321C58.0954 45.6321 55.1902 43.3165 55.0859 39.1083C55.0859 38.9023 55.2758 38.7147 55.4842 38.7147H58.1475C58.356 38.7147 58.5458 38.9023 58.5458 39.1046C58.5793 40.4767 58.9962 41.4626 59.8207 42.1192C60.6191 42.7555 61.8363 43.0774 63.4387 43.0774C66.0853 43.0774 67.6654 41.9941 67.6654 40.1806C67.6654 38.2512 65.3743 37.8687 62.7203 37.4272C59.3368 36.8626 55.5047 36.2225 55.5047 32.0769C55.5047 28.6853 58.0991 26.6621 62.8059 26.6621C67.5128 26.6621 70.3268 28.7441 70.5297 32.3785V32.3877C70.5297 32.5937 70.3398 32.7813 70.1314 32.7813H67.5742C67.3695 32.7813 67.1815 32.5992 67.1759 32.3969C67.0419 30.9255 66.1672 29.1782 62.7743 29.1782C59.5992 29.1782 58.9329 30.6404 58.9329 31.8672C58.9329 33.6359 61.1294 33.9821 63.6724 34.3829L63.6751 34.3833ZM53.0306 27.0388H50.157C49.9486 27.0388 49.7588 27.2264 49.7588 27.4324L49.8295 34.8446V37.5262C49.1744 40.8056 47.3858 42.7607 45.0408 42.7607C42.6957 42.7607 41.4097 41.1661 41.4097 38.2711V34.8428L41.4786 27.4324C41.4786 27.2246 41.2887 27.037 41.0803 27.037H38.242C38.0336 27.037 37.8438 27.2246 37.8438 27.4306L37.9145 34.8428V38.3741C37.9145 43.0035 40.1925 45.6594 44.166 45.6594C47.2779 45.6594 49.0925 43.8588 49.9542 42.6633L49.9002 44.8464C49.9002 45.0561 50.09 45.2437 50.2985 45.2437H52.9971C53.2056 45.2437 53.3954 45.0561 53.3954 44.8501L53.3601 35.3596L53.4289 27.4306C53.4289 27.2228 53.2391 27.0352 53.0306 27.0352V27.0388ZM103.017 31.6758L104.49 27.4934C104.527 27.3848 104.508 27.2653 104.443 27.177C104.38 27.0887 104.279 27.0391 104.171 27.0391H101.298C101.114 27.0391 100.9 27.1954 100.84 27.3738L96.658 40.4067L91.6999 27.3756C91.6366 27.1549 91.4226 27.0391 91.2402 27.0391H88.0521C87.9423 27.0391 87.8436 27.0887 87.7803 27.1752C87.7152 27.2653 87.6966 27.383 87.7338 27.4897V27.4952L87.7375 27.5007L94.8638 45.0729C94.8489 47.0188 94.1678 47.9642 92.785 47.9642H92.7719C92.128 47.9624 91.5678 47.8925 91.1062 47.7564C91.0764 47.7453 91.0373 47.7398 90.9983 47.7398C90.8084 47.7398 90.6595 47.8851 90.6577 48.0709L90.6484 50.0444C90.6484 50.2302 90.8066 50.4509 91.0094 50.4729C91.6776 50.6495 92.5709 50.758 93.4103 50.7617H93.4345C95.7237 50.7617 96.993 49.3473 98.2865 45.3543L102.874 32.0786L103.017 31.674V31.6758ZM85.5748 35.702C84.1528 34.9387 82.3568 34.6555 80.6185 34.3833L80.6159 34.3829C78.0728 33.9821 75.8764 33.6359 75.8764 31.8672C75.8764 30.6404 76.5427 29.1782 79.7178 29.1782C83.1106 29.1782 83.9853 30.9255 84.1212 32.3969C84.1268 32.5992 84.3148 32.7813 84.5195 32.7813H87.0786C87.287 32.7813 87.4768 32.5937 87.4768 32.3877V32.3785C87.274 28.7441 84.4599 26.6621 79.755 26.6621C75.05 26.6621 72.4537 28.6853 72.4537 32.0769C72.4537 35.1576 74.5698 36.3016 77.0433 36.9196C77.8994 37.133 78.7983 37.2838 79.6675 37.4272C82.3215 37.8687 84.6125 38.2512 84.6125 40.1806C84.6125 41.9941 83.0324 43.0774 80.384 43.0774C78.7835 43.0774 77.5644 42.7555 76.766 42.1192C75.9415 41.4626 75.5246 40.4767 75.4911 39.1046C75.4911 38.9023 75.3013 38.7147 75.0928 38.7147H72.4295C72.2211 38.7147 72.0312 38.9023 72.0312 39.1083C72.1355 43.3165 75.0407 45.6321 80.2091 45.6321C82.4536 45.6321 84.3799 45.1227 85.7795 44.1571C87.2554 43.1381 88.037 41.6796 88.037 39.9397C88.037 37.9809 87.2312 36.5941 85.5748 35.7057V35.702ZM102.379 42.7408C102.379 41.5803 103.334 40.6367 104.508 40.6367C105.682 40.6367 106.637 41.5803 106.637 42.7408C106.637 43.9014 105.682 44.8449 104.508 44.8449C103.334 44.8449 102.379 43.9014 102.379 42.7408Z" clip-rule="evenodd" fill-rule="evenodd"></path>
</svg>
