<svg xmlns="http://www.w3.org/2000/svg" fill="none" viewBox="0 0 84 12" height="12" width="84">
<path fill="black" d="M43.225 8.14522C43.225 9.29059 43.5291 10.1123 44.1381 10.6092C44.7464 11.1067 45.533 11.3554 46.4974 11.3554C47.4618 11.3554 48.2484 11.1067 48.8567 10.6092C49.465 10.1117 49.7698 9.29059 49.7698 8.14522V3.44255H48.679V8.14522C48.679 8.85338 48.4993 9.40735 48.1393 9.80712C47.7799 10.2069 47.2321 10.4061 46.4974 10.4061C45.7627 10.4061 45.2156 10.2069 44.8555 9.80712C44.4961 9.40735 44.3165 8.85402 44.3165 8.14522V3.44255H43.2256L43.225 8.14522Z"></path>
<path fill="black" d="M53.4056 11.2463H59.0021V10.3414H54.4964V7.74167H58.0058V6.83743H54.4964V4.37346H58.9069V3.46859H53.4056V11.2463Z"></path>
<path fill="black" d="M32.9738 11.1917H34.0646L34.0167 5.22312H34.0646L38.5696 11.1917H39.6125V3.41401H38.5224L38.5696 9.42831H38.5224L34.0167 3.41401H32.9738V11.1917Z"></path>
<path fill="black" d="M65.7819 7.33113C65.7819 8.50696 66.1453 9.47148 66.8727 10.2247C67.6001 10.9785 68.5325 11.3555 69.6706 11.3555C70.619 11.3555 71.3996 11.1162 72.0119 10.6378C72.6249 10.1593 73.0142 9.53938 73.1799 8.77791H72.0538C71.9034 9.29825 71.6366 9.69928 71.2532 9.98166C70.8705 10.2647 70.3421 10.4055 69.6706 10.4055C68.8646 10.4055 68.2044 10.1117 67.6906 9.52351C67.1768 8.93592 66.9199 8.20428 66.9199 7.3305C66.9199 6.45672 67.1788 5.69716 67.6966 5.12098C68.2144 4.54417 68.8879 4.25609 69.7178 4.25609C70.3421 4.25609 70.8499 4.39696 71.2412 4.67997C71.6326 4.96298 71.9034 5.36402 72.0538 5.88372H73.1799C73.0142 5.12225 72.6329 4.50229 72.0359 4.02384C71.4389 3.54539 70.6662 3.30616 69.7185 3.30616C68.5565 3.30616 67.6101 3.68816 66.8787 4.45343C66.1473 5.2187 65.7819 6.17815 65.7819 7.33113Z"></path>
<path fill="black" d="M77.1703 4.37981C77.1703 3.50603 77.4312 2.77439 77.953 2.18679C78.4748 1.59919 79.1623 1.30476 80.0161 1.30476C80.87 1.30476 81.5575 1.59856 82.0793 2.18679C82.6011 2.77439 82.8619 3.50603 82.8619 4.37981C82.8619 5.25358 82.6011 5.98522 82.0793 6.57282C81.5575 7.16042 80.87 7.45485 80.0161 7.45485C79.1623 7.45485 78.4748 7.16105 77.953 6.57282C77.4312 5.98522 77.1703 5.25358 77.1703 4.37981ZM76.0323 4.37981C76.0323 5.53279 76.3996 6.4916 77.135 7.25687C77.8705 8.02214 78.8302 8.40414 80.0161 8.40414C81.2021 8.40414 82.1325 8.02214 82.8792 7.25687C83.626 6.4916 84 5.53279 84 4.37981C84 3.22682 83.6266 2.26801 82.8792 1.50274C82.1325 0.73747 81.1781 0.355469 80.0161 0.355469C78.8541 0.355469 77.8705 0.73747 77.135 1.50274C76.4003 2.26801 76.0323 3.22682 76.0323 4.37981Z"></path>
<path fill="black" d="M83.4077 10.4519H76.6193V11.3555H83.4077V10.4519Z"></path>
<path fill="black" d="M0 3.41401H6.78176V4.29604H3.93662V11.1917H2.84581V4.29604H0V3.41401Z"></path>
<path fill="black" d="M10.323 3.44255H11.4138V6.8336H15.7771V3.44255H16.8679V11.2196H15.7771V7.73784H11.4138V11.2196H10.323V3.44255Z"></path>
<path fill="black" d="M20.5036 11.2463H26.0994V10.3414H21.5944V7.74167H25.1038V6.83743H21.5944V4.37346H26.0043V3.46859H20.5036V11.2463Z"></path>
</svg>
