<svg xmlns="http://www.w3.org/2000/svg" width="188.36mm" height="26.44mm" viewBox="0 0 533.94 74.95"><g id="Layer_2" data-name="Layer 2"><g id="Layer_1-2" data-name="Layer 1"><path d="M0,1H17.22L33.81,32.32h.71L51.1,1H68.32L41.8,48V73.72H26.53V48Z"/><path d="M82.66,74.79a28.87,28.87,0,0,1-14.47-3.43,23.21,23.21,0,0,1-9.32-9.73A32,32,0,0,1,55.6,46.7a31.9,31.9,0,0,1,3.27-14.78A24.09,24.09,0,0,1,68.09,22a26.69,26.69,0,0,1,14-3.55,28.86,28.86,0,0,1,10.07,1.72,22.77,22.77,0,0,1,8.16,5.16A23.58,23.58,0,0,1,105.75,34a34.6,34.6,0,0,1,2,12.17v4.15H61.64V40.94H93.46A11.65,11.65,0,0,0,92,35.16a10.38,10.38,0,0,0-3.93-4,11.4,11.4,0,0,0-5.8-1.44,11.66,11.66,0,0,0-6.09,1.58,11.32,11.32,0,0,0-4.14,4.22,12.2,12.2,0,0,0-1.53,5.88v8.91a15.25,15.25,0,0,0,1.51,7,10.88,10.88,0,0,0,4.28,4.55,13,13,0,0,0,6.57,1.59,14.17,14.17,0,0,0,4.62-.71,9.53,9.53,0,0,0,3.59-2.13,9.19,9.19,0,0,0,2.27-3.48l14,.93A19.09,19.09,0,0,1,103,66.89a22,22,0,0,1-8.45,5.82A31.9,31.9,0,0,1,82.66,74.79Z"/><path d="M158.78,34.73l-13.85.85a7.35,7.35,0,0,0-1.53-3.21,8.33,8.33,0,0,0-3.07-2.31,10.83,10.83,0,0,0-4.53-.87,11.22,11.22,0,0,0-5.93,1.47,4.45,4.45,0,0,0-2.41,3.93,4.2,4.2,0,0,0,1.56,3.3,12.46,12.46,0,0,0,5.36,2.17l9.87,2c5.31,1.08,9.26,2.84,11.86,5.25A12.37,12.37,0,0,1,160,56.82a15,15,0,0,1-3.14,9.41,20.5,20.5,0,0,1-8.6,6.3,32.45,32.45,0,0,1-12.55,2.26q-10.83,0-17.24-4.53A17.49,17.49,0,0,1,111,57.92l14.88-.78a7.58,7.58,0,0,0,3.27,5,13.81,13.81,0,0,0,13.05.18,4.67,4.67,0,0,0,2.46-4A4.21,4.21,0,0,0,142.9,55a12.79,12.79,0,0,0-5.25-2L128.2,51q-8-1.61-11.88-5.54a13.72,13.72,0,0,1-3.88-10.05,14.65,14.65,0,0,1,2.85-9,18.11,18.11,0,0,1,8.07-5.86,32.83,32.83,0,0,1,12.19-2.06q10.33,0,16.29,4.36A17,17,0,0,1,158.78,34.73Z"/><path d="M229.75,26.46H214.19a15.14,15.14,0,0,0-1.74-5.38,13.56,13.56,0,0,0-3.37-4,14.65,14.65,0,0,0-4.74-2.56,18.42,18.42,0,0,0-5.81-.89,17.31,17.31,0,0,0-9.83,2.79,18,18,0,0,0-6.5,8.1,32.15,32.15,0,0,0-2.31,12.87,32.52,32.52,0,0,0,2.33,13.07,16.81,16.81,0,0,0,16.21,10.69,19.45,19.45,0,0,0,5.73-.82,14.87,14.87,0,0,0,4.71-2.4,13.73,13.73,0,0,0,3.42-3.85,15,15,0,0,0,1.9-5.19l15.56.07a28.13,28.13,0,0,1-3,9.65,29.14,29.14,0,0,1-6.43,8.27,30,30,0,0,1-9.59,5.75,35.06,35.06,0,0,1-12.55,2.12,34.16,34.16,0,0,1-17.38-4.41,31,31,0,0,1-12.08-12.75q-4.42-8.34-4.42-20.2t4.48-20.24A31.23,31.23,0,0,1,180.92,4.39,34.09,34.09,0,0,1,198.18,0a37.37,37.37,0,0,1,11.74,1.78,29.8,29.8,0,0,1,9.6,5.16,27.32,27.32,0,0,1,6.84,8.29A31.22,31.22,0,0,1,229.75,26.46Z"/><path d="M259.88,74.79a27.7,27.7,0,0,1-14.3-3.54,23.77,23.77,0,0,1-9.28-9.87A31.65,31.65,0,0,1,233,46.66a31.86,31.86,0,0,1,3.27-14.79A23.89,23.89,0,0,1,245.58,22a30.71,30.71,0,0,1,28.59,0,23.89,23.89,0,0,1,9.28,9.87,31.86,31.86,0,0,1,3.27,14.79,31.65,31.65,0,0,1-3.27,14.72,23.77,23.77,0,0,1-9.28,9.87A27.69,27.69,0,0,1,259.88,74.79ZM260,63.07a9.35,9.35,0,0,0,6.28-2.15A13.16,13.16,0,0,0,270.05,55a25.82,25.82,0,0,0,1.3-8.48,25.84,25.84,0,0,0-1.3-8.49,13.35,13.35,0,0,0-3.82-5.9A9.31,9.31,0,0,0,260,30a9.59,9.59,0,0,0-6.38,2.16,13.25,13.25,0,0,0-3.87,5.9,25.84,25.84,0,0,0-1.3,8.49A25.82,25.82,0,0,0,249.7,55a13.08,13.08,0,0,0,3.87,5.88A9.64,9.64,0,0,0,260,63.07Z"/><path d="M307.13,1V73.72H292V1Z"/><path d="M339.26,74.79A27.73,27.73,0,0,1,325,71.25a23.83,23.83,0,0,1-9.28-9.87,31.65,31.65,0,0,1-3.27-14.72,31.86,31.86,0,0,1,3.27-14.79A24,24,0,0,1,325,22a30.71,30.71,0,0,1,28.59,0,24,24,0,0,1,9.29,9.87,31.86,31.86,0,0,1,3.26,14.79,31.65,31.65,0,0,1-3.26,14.72,23.85,23.85,0,0,1-9.29,9.87A27.69,27.69,0,0,1,339.26,74.79Zm.07-11.72a9.35,9.35,0,0,0,6.28-2.15A13.16,13.16,0,0,0,349.43,55a25.56,25.56,0,0,0,1.3-8.48,25.58,25.58,0,0,0-1.3-8.49,13.35,13.35,0,0,0-3.82-5.9A9.31,9.31,0,0,0,339.33,30,9.61,9.61,0,0,0,333,32.17a13.25,13.25,0,0,0-3.87,5.9,25.85,25.85,0,0,0-1.29,8.49A25.83,25.83,0,0,0,329.08,55,13.08,13.08,0,0,0,333,60.92,9.65,9.65,0,0,0,339.33,63.07Z"/><path d="M406.36,50.5V19.18h15.13V73.72H407V63.81h-.57a16.09,16.09,0,0,1-6.13,7.71,18.07,18.07,0,0,1-10.42,2.91A18.42,18.42,0,0,1,380.23,72a17,17,0,0,1-6.48-7.07,24.23,24.23,0,0,1-2.37-11V19.18h15.13v32a11.07,11.07,0,0,0,2.59,7.63A8.84,8.84,0,0,0,396,61.65a10.74,10.74,0,0,0,5.11-1.26,9.69,9.69,0,0,0,3.85-3.75A11.5,11.5,0,0,0,406.36,50.5Z"/><path d="M430.77,73.72V19.18h14.67v9.51H446A14.23,14.23,0,0,1,451,21a13.31,13.31,0,0,1,8.1-2.6,21.57,21.57,0,0,1,2.45.14,16,16,0,0,1,2.31.39V32.35a20.9,20.9,0,0,0-2.95-.57,27.57,27.57,0,0,0-3.44-.25,12.1,12.1,0,0,0-6,1.44,10.63,10.63,0,0,0-4.12,4,11.33,11.33,0,0,0-1.51,5.89V73.72Z"/><path d="M514,34.73l-13.85.85a7.35,7.35,0,0,0-1.53-3.21,8.41,8.41,0,0,0-3.07-2.31,10.83,10.83,0,0,0-4.53-.87A11.22,11.22,0,0,0,485,30.66a4.45,4.45,0,0,0-2.41,3.93,4.2,4.2,0,0,0,1.56,3.3,12.46,12.46,0,0,0,5.36,2.17l9.87,2c5.31,1.08,9.26,2.84,11.86,5.25a12.37,12.37,0,0,1,3.91,9.52,15,15,0,0,1-3.14,9.41,20.5,20.5,0,0,1-8.6,6.3,32.49,32.49,0,0,1-12.55,2.26q-10.83,0-17.24-4.53a17.49,17.49,0,0,1-7.51-12.34L481,57.14a7.6,7.6,0,0,0,3.26,5,13.83,13.83,0,0,0,13.06.18,4.67,4.67,0,0,0,2.46-4,4.21,4.21,0,0,0-1.74-3.4,12.85,12.85,0,0,0-5.25-2L483.37,51q-8-1.61-11.88-5.54a13.73,13.73,0,0,1-3.89-10.05,14.66,14.66,0,0,1,2.86-9,18.13,18.13,0,0,1,8.06-5.86,32.92,32.92,0,0,1,12.2-2.06q10.33,0,16.28,4.36A16.93,16.93,0,0,1,514,34.73Z"/><path d="M533.94,67a8.1,8.1,0,1,1-8.08-7.89A7.92,7.92,0,0,1,533.94,67Zm-14.18,0a6.11,6.11,0,0,0,6.15,6.3,6,6,0,0,0,6-6.25,6.08,6.08,0,1,0-12.16,0Zm4.85,4.13h-1.83V63.22a15.64,15.64,0,0,1,3-.24,4.86,4.86,0,0,1,2.74.58,2.15,2.15,0,0,1,.77,1.73,2,2,0,0,1-1.63,1.82v.1a2.32,2.32,0,0,1,1.44,1.92,6.07,6.07,0,0,0,.58,2h-2a6.74,6.74,0,0,1-.63-1.92c-.14-.87-.62-1.25-1.63-1.25h-.87Zm0-4.47h.86c1,0,1.83-.33,1.83-1.15s-.53-1.2-1.68-1.2a4.35,4.35,0,0,0-1,.09Z"/></g></g></svg>