<svg xmlns="http://www.w3.org/2000/svg" fill="none" viewBox="0 0 102 21" height="21" width="102">
<path fill="#1a1a1a" d="M42.0095 20.874V20.9957H37.3205L29.5235 10.9991H28.121V17.3125C28.121 19.5778 28.4778 19.8798 29.9717 20.1525V20.9999H22.5605V20.1525C24.0544 19.8798 24.4113 19.5778 24.4113 17.3125V3.47341C24.4113 1.56891 24.1125 1.08649 22.5605 0.847378V0H30.9551C35.5279 0 38.6359 2.08489 38.6359 5.34855C38.6359 7.88649 36.6649 9.82036 33.615 10.5755L42.0095 20.874ZM28.1168 9.15337H30.1501C33.0174 9.15337 34.6897 7.7942 34.6897 5.40728C34.6897 3.02036 32.8971 1.81222 30.2082 1.81222H28.1168V9.15337Z"></path>
<path fill="#1a1a1a" d="M46.5361 20.1523C48.2673 19.909 48.6885 19.6069 48.6885 17.3747V1.78321H47.1427C44.0805 1.78321 42.8674 2.86991 42.5009 4.98459H41.6206V0H59.5137V4.98459H58.6333C58.2711 2.86991 57.058 1.78321 53.9916 1.78321H52.4457V17.3747C52.4457 19.6111 52.8712 19.9132 54.5981 20.1523V20.9999H46.5319V20.1523H46.5361Z"></path>
<path fill="#1a1a1a" d="M101.913 0.847548C100.456 1.0909 100.064 1.393 100.064 3.53704V17.4628C100.064 19.5775 100.46 19.8796 101.913 20.1523V20.9999H94.4202V20.1523C95.9069 19.8796 96.2986 19.5775 96.2986 17.4628V11.2699H85.7735V17.4628C85.7735 19.5775 86.1694 19.8796 87.652 20.1523V20.9999H80.1299V20.1523C81.6166 19.8796 82.0083 19.5775 82.0083 17.4628V3.53704C82.0083 1.393 81.6124 1.0909 80.1299 0.847548V0H87.652V0.847548C86.1652 1.0909 85.7735 1.393 85.7735 3.53704V9.39855H96.2986V3.53704C96.2986 1.393 95.9027 1.0909 94.4202 0.847548V0H101.913V0.847548Z"></path>
<path fill="#1a1a1a" d="M18.4724 17.1901L11.4128 0H7.69683V0.34825L8.46652 2.27411L2.53251 17.4041C1.84558 19.095 1.43178 19.9132 0 20.1523V20.9999H6.02091V20.1523C4.05532 19.8796 3.93532 19.095 4.68017 17.2531L5.66503 14.7146H13.4405L14.5123 17.3412C15.1661 19.0027 15.1992 19.909 13.3784 20.1523V20.9999H21.0049V20.1523C19.6931 19.8502 19.3083 19.2167 18.4724 17.1901ZM6.37678 12.8685L9.38517 5.13564H9.59207L12.7205 12.8685H6.37265H6.37678Z"></path>
<path fill="#1a1a1a" d="M76.3917 17.1901L69.1958 0H65.406V0.34825L66.1901 2.28251L60.1493 17.4041C59.4495 19.095 59.0279 19.9132 57.5693 20.1523V20.9999H63.6987V20.1523C61.6964 19.8796 61.5741 19.095 62.3329 17.2531L63.3362 14.7146H71.2572L72.349 17.3412C73.0151 19.0027 73.0488 19.909 71.194 20.1523V20.9999H78.9632V20.1523C77.6269 19.8502 77.2306 19.2167 76.3833 17.1901H76.3917ZM64.0655 12.8685L67.1302 5.13564H67.341L67.8342 6.33563L68.104 6.99856V6.99017L70.5279 12.8685H64.0613H64.0655Z"></path>
</svg>
