<svg width="257" height="41" xmlns="http://www.w3.org/2000/svg">
  <g fill="#1a1a1a" fill-rule="evenodd">
    <path d="M140.87 1.19c-1.891.058-2.435.822-2.384 3.032.14 6.04.255 12.08.384 18.25-.162-.355-.304-.602-.392-.873-.615-1.895-1.21-3.799-1.828-5.692-1.363-4.172-2.761-8.328-4.088-12.515-.44-1.386-1.194-1.966-2.431-1.817-1.063.128-2.128.232-3.193.35-.742.083-1.038.526-1.008 1.417.083 2.44.137 4.883.144 7.325.025 9.285.04 18.57.021 27.855-.002 1.009.303 1.5 1.141 1.515 1.416.023 2.833.006 4.349.006-.198-7.62-.323-15.067.003-22.529.627 1.333 1.106 2.678 1.555 4.036 1.887 5.704 3.771 11.41 5.637 17.124.196.599.456.918 1.035.908 1.449-.024 2.899-.008 4.606-.008l-.356-38.227c-1.197-.064-2.198-.187-3.196-.157M227.923 13.938c.85-6.369-1.063-10.925-6.781-12.184-3.638-.801-7.311-.583-10.978-.46-.204.007-.556.555-.563.86-.025 1.124.102 2.25.106 3.377.03 10.37.026 20.739.077 31.108.016 3.296.24 3.477 3.078 3.415 2.347-.052 2.516-.24 2.523-2.967.01-3.608-.002-7.216.013-10.823.002-.657.083-1.313.124-1.926.93-.273 1.493.168 1.826.908.446.992.819 2.033 1.154 3.083 1.077 3.373 2.113 6.763 3.194 10.134.138.43.424 1.076.7 1.118 1.52.228 3.057.3 4.863.448-1.188-5.937-3.244-11.132-4.596-16.665 2.943-2.221 4.727-5.442 5.26-9.426zm-12.457-7.443c1.692.31 3.335.459 4.902.941 1.381.426 1.738 1.946 1.81 3.402.05 1.067-.009 2.205-.28 3.218-1.216 4.559-2.54 4.855-6.432 4.195V6.495zM187.84 3.516c-.467 8.53-.047 17.05.207 25.57.082 2.752.92 5.208 2.302 7.415 2.265 3.616 6.932 4.863 10.356 2.779 3.06-1.862 4.822-4.742 4.808-8.804-.035-8.748-.143-17.494-.233-26.241-.006-.628-.002-1.304-.2-1.865-.168-.473-.589-1.1-.956-1.155-1.166-.177-2.359-.13-3.542-.149-.784-.012-1.143.396-1.098 1.364.093 2 .116 4.002.168 6.003.16 6.15.395 12.3.433 18.452.01 1.772-.45 3.58-.868 5.314-.319 1.324-1.028 2.44-2.408 2.473-1.386.033-2.353-.86-2.84-2.628-.241-.877-.492-1.79-.523-2.698-.206-5.888-.412-11.778-.494-17.67-.043-3.073.164-6.151.263-9.227.017-.498.06-1.027-.558-1.033-1.525-.015-3.052-.005-4.638-.005-.08.926-.147 1.514-.179 2.105M245.983 39.562c.23-.003.62-.603.65-.958.088-1.042.016-2.101.038-3.153.015-.755-.282-1.101-.922-1.127-.906-.036-1.813-.126-2.72-.137-1.845-.022-3.69-.007-5.575-.007V23.233c.896 0 1.67.016 2.443-.003 1.326-.033 2.657-.037 3.977-.163.45-.043 1.075-.103 1.05-1.007-.033-1.268-.007-2.538-.007-3.952h-7.708V6.564h9.299c.052-1.339.06-2.54.157-3.729.085-1.012-.282-1.306-1.108-1.308-3.8-.012-7.602-.146-11.402-.086-2.63.042-2.41-.53-2.447 2.792-.087 8.152-.043 16.306-.05 24.458-.003 3.57 0 7.138 0 10.913 4.852 0 9.589.014 14.325-.042M179.04 7.78c1.587-.075 3.176-.157 4.764-.197.668-.017 1.01-.247.978-1.114-.049-1.274-.02-2.554 0-3.83.013-.832-.224-1.172-1.025-1.16-3.636.055-7.273.021-10.91.03-2.077.003-4.155.056-6.231.026-.762-.01-1.085.403-1.087 1.188-.002 1.122.08 2.245.086 3.367.009 1.22.517 1.593 1.536 1.518 1.42-.105 2.85-.073 4.275-.067.716.004 1.042.516 1.064 1.303.027.938.034 1.877.05 2.816.158 8.974.325 17.8.458 26.774.012.84.277 1.298.962 1.365 1.092.106 2.192.24 3.281.188 1.193-.056 1.454-.427 1.444-1.843-.01-1.388-.156-2.774-.175-4.162-.05-3.641-.02-7.138-.098-10.778-.109-5.06-.579-10.12.004-15.287.247-.056.434-.127.624-.136M163.71 39.923c-.531.127-1.101.121-1.647.073-2.115-.185-2.16-.17-2.441-2.791-.148-1.374-.134-2.77-.19-4.156-.035-.867-.378-1.226-1.17-1.22-1.427.009-2.856-.11-4.284-.173-.062-.003-.125.033-.395.109-.144 1.076-.319 2.244-.456 3.417-.141 1.224-.214 2.46-.381 3.68-.123.9-.652 1.348-1.444 1.35-1.06.004-2.12.001-3.38.001.126-1.969.146-3.62.348-5.239 1.069-8.505 2.15-17.009 3.303-25.5.32-2.365.882-4.689 1.368-7.022.052-.253.327-.62.514-.63 1.967-.123 3.938-.21 5.909-.249.772-.014 1.294.535 1.459 1.382.511 2.628 1.064 5.252 1.438 7.909.585 4.147 1.115 8.31 1.525 12.486.482 4.926.807 9.872 1.21 14.808.091 1.113-.501 1.579-1.285 1.765zM158.966 26.5l-2.048-17.505c-.127 0-.254-.003-.38-.004-1.018 5.738-1.935 11.496-2.535 17.509h4.963zM98.693 1.703c.087-.077.182-.086.275-.094 1.722-.146 3.443-.006 5.166-.151.885-.076 1.77-.15 2.656-.085.847.062 1.757-.104 2.603-.047 2.221.15 3.683-.259 5.903.017.308.037.622.099.907.365.286.266.184.768.271 1.436.045.34.04.727-.043 1.026-.151.543-.485.607-.769.611a97.44 97.44 0 01-3.883.012c-.872-.012-1.69.055-2.595-.017a9.792 9.792 0 00-1.242 0c-.567.025-.955-.006-1.617.046-1.779.14-3.333.252-5.093.147-.716-.043-1.668.234-2.356-.225-.468-.313-.755-2.528-.183-3.04M113.713 36.505c-1.758-.134-3.553-.046-5.333.065-.663.041-1.05.004-1.618.02-.338.011-.785.024-1.241-.02-.906-.086-1.723-.033-2.595-.059a91.507 91.507 0 00-3.763-.049c-.284 0-.617.06-.776.6-.088.298-.097.684-.057 1.025.08.67.33 1.176.612 1.446s.594.337.903.38c2.215.311 3.204-.082 5.423.104.846.07 1.758-.081 2.603-.005.884.079 2.011.018 2.897-.043 1.724-.118 3.447-.093 5.17-.211.093-.007.19-.014.277-.09.578-.503.315-2.58-.15-2.9-.68-.47-1.636-.208-2.352-.263zM98.31 30.114c.026.428.083.858.07 1.286-.017.524.066.695.57.823.31.08.625.13.94.193h1.03c.163-.042.33-.073.49-.129.526-.184.587-.295.593-.796.035-3.441.118-6.882.115-10.324-.001-2.542-.113-5.083-.166-7.625-.018-.847-.004-1.696-.012-2.543-.002-.208-.03-.416-.05-.662-1.066-.03-2.106-.053-3.145-.091-.253-.01-.3.106-.301.325-.01 1.13-.06 2.26-.043 3.39.028 1.947.122 3.893.134 5.84.013 2.422-.016 4.844-.055 7.266-.016.996-.11 1.99-.17 2.986v.06zM112.69 22.262c-.047-.111-.097-.22-.138-.333-.97-2.601-1.927-5.207-2.912-7.802-.414-1.09-.884-2.159-1.332-3.237a.585.585 0 00-.467-.377c-1.087-.212-2.147-.052-3.206.188-.246.055-.358.17-.35.431.01.292-.034.585-.028.877.03 1.494.098 2.988.102 4.482.014 4.98.008 9.958.009 14.937 0 .476.07.642.538.665 1.003.049 2.01.015 3.035.015-.07-4.302-.253-8.576-.022-12.854a.816.816 0 01.185.292c.597 1.549 1.22 3.088 1.782 4.65.892 2.479 1.76 4.967 2.858 7.367.088.195.184.307.418.304.887-.011 1.775-.003 2.664-.011.42-.003.437-.012.44-.42.005-.888-.024-1.776-.014-2.664.023-1.928.104-3.857.084-5.785-.023-2.28-.14-4.56-.192-6.842-.028-1.262.003-2.524-.01-3.787-.006-.664-.05-1.328-.077-2.009-.287-.04-.555-.1-.825-.11-.495-.018-.995-.047-1.486-.001-.89.082-1.245.345-1.25 1.281-.007.97-.007 1.94.014 2.908.04 1.655.097 3.31.148 4.964l.092 2.868-.06.003M253.59 0c.512 0 1.008.127 1.494.383s.865.622 1.136 1.099c.273.478.408.975.408 1.493 0 .511-.133 1.004-.402 1.478-.266.471-.64.839-1.125 1.1a3.118 3.118 0 01-3.026 0 2.809 2.809 0 01-1.124-1.1 2.937 2.937 0 01-.404-1.478c0-.518.136-1.015.409-1.493a2.778 2.778 0 011.14-1.099A3.17 3.17 0 01253.59 0zm0 .492a2.65 2.65 0 00-1.247.32 2.307 2.307 0 00-.948.92c-.23.397-.346.81-.346 1.243 0 .427.117.838.338 1.23.224.394.54.7.943.92.401.219.82.328 1.26.328.439 0 .858-.11 1.26-.328.403-.22.717-.526.94-.92a2.46 2.46 0 00.335-1.23c0-.432-.113-.846-.343-1.243a2.306 2.306 0 00-.947-.92 2.657 2.657 0 00-1.244-.32zm-1.208 4.125v-3.2h1.12c.387 0 .664.03.837.089.17.06.307.162.41.31a.836.836 0 01-.104 1.08c-.167.173-.398.27-.677.291a.906.906 0 01.278.17c.13.126.291.337.484.633l.398.627h-.645l-.29-.503c-.227-.398-.412-.646-.551-.746-.096-.074-.237-.11-.424-.11h-.31v1.359h-.526zm.526-1.801h.641c.305 0 .513-.045.627-.133a.435.435 0 00.165-.355.412.412 0 00-.08-.254.499.499 0 00-.22-.168c-.097-.037-.275-.055-.534-.055h-.599v.965zM88.887 19.56c-.06-5.528-.316-11.052-.393-16.58-.014-1.005-.347-1.583-1.096-1.72-.99-.18-2.02-.081-3.028-.168-1.051-.09-1.41.526-1.407 1.557.007 1.703.055 3.405.045 5.108a519.72 519.72 0 01-.107 7.937c-.026 1.198-.525 1.896-1.713 1.804a41.097 41.097 0 00-3.164-.136c-.938.001-1.285-.416-1.29-1.49-.02-4.316-.14-8.631-.165-12.948-.005-.864-.255-1.261-1.003-1.332-1.153-.11-2.302-.268-3.456-.34-.88-.054-1.354.32-1.313 1.466.18 4.84.385 9.685.398 14.528.018 7.157-.086 14.315-.22 21.47-.024 1.255.428 1.702 1.395 1.858.304.049.605.131.909.168 2.616.314 3.213-.4 3.186-3.307-.043-4.54.057-9.082.061-13.623 0-.8.324-1.106.96-1.103 1.567.007 3.135.091 4.701.052.818-.02 1.097.353 1.095 1.19-.01 3.03-.055 6.06.012 9.087.047 2.149.235 4.295.408 6.437.024.3.32.814.501.82 1.512.045 3.026-.005 4.702-.028 0-7.092.056-13.9-.018-20.707M18.161 40.591c2.258.092 2.621-.255 2.86-2.713.15-1.542.254-3.09.412-4.63.098-.952.503-1.436 1.485-1.292 1.112.163 2.253.243 3.37.17 1.12-.075 1.542.475 1.595 1.594.024.53.032 1.059.062 1.588.068 1.169.116 2.34.23 3.504.079.824.464 1.41 1.292 1.442.917.036 1.842.14 2.752.053.997-.097 1.502-.777 1.42-1.806-.399-4.976-.755-9.96-1.262-14.923-.43-4.208-.997-8.4-1.596-12.583-.363-2.531-.887-5.036-1.37-7.545-.224-1.16-.895-1.908-1.99-1.883-1.97.046-3.94.187-5.908.334-.186.014-.463.323-.51.544-.574 2.762-1.236 5.51-1.64 8.304-1.059 7.357-2.024 14.73-2.978 22.106-.314 2.423-.479 4.87-.73 7.506 1.021.096 1.762.2 2.506.23zm3.94-13.815a207.365 207.365 0 012.691-17.637c.124-.002.248-.002.373-.003l2.153 17.64H22.1zM16.131 7.117c0-1.771.026-3.24-.01-4.706-.019-.761-.419-1.125-1.14-1.113-1.467.025-2.935-.04-4.4-.004-3.204.08-6.407.21-9.61.294-.85.022-1.018.564-.961 1.336.056.753.177 1.505.183 2.258.067 7.948.12 15.897.17 23.846.02 3.254.008 6.508.042 9.763.018 1.597.323 1.945 1.763 1.915 1.052-.023 2.099-.254 3.151-.301.731-.033.903-.428.91-1.142.034-3.37.102-6.738.138-10.107.02-1.926.004-3.852.004-6.105 1.184 0 2.36.03 3.535-.008 1.153-.038 2.312-.084 3.453-.258.337-.051.865-.528.884-.84.093-1.53.042-3.068.042-4.636H5.867V7.117h10.264zM63.11 7.615a78.822 78.822 0 013.58-.061c.678.002.98-.28.957-1.076-.041-1.323-.018-2.65 0-3.973.01-.805-.269-1.099-1.038-1.092-4.125.041-8.252.012-12.378.018-1.841.002-3.682.078-5.521.024-.951-.027-1.312.454-1.298 1.395.014 1.094.112 2.187.119 3.28.009 1.209.564 1.53 1.568 1.45 1.358-.107 2.725-.171 4.086-.121 1.312.048 1.515.343 1.579 1.787.034.756.02 1.513.032 2.27.163 9.08.34 18.161.476 27.242.014.903.334 1.363 1.076 1.44 1.079.111 2.169.241 3.247.183 1.432-.078 1.68-.432 1.656-2.064-.018-1.21-.155-2.417-.182-3.626-.136-6.014-.285-12.027-.365-18.042-.038-2.902.062-5.806.1-8.795.899-.096 1.602-.21 2.307-.239M38.496 17.15c-.022 7.266-.114 14.53-.213 21.795-.012.888.253 1.433 1.016 1.503 1.208.11 2.428.172 3.639.129.785-.029 1.128-.57 1.134-1.524.035-5.905.188-11.81.177-17.714-.012-6.281-.164-12.563-.252-18.845-.007-.6-.025-1.16-.772-1.156-1.564.008-3.13.002-4.8.002-.023.348-.062.646-.059.943.044 4.955.145 9.912.13 14.867z"/>
  </g>
</svg>