<svg xmlns="http://www.w3.org/2000/svg" fill="none" viewBox="0 0 224 40" height="40" width="224">
<path fill="#1D1D1D" d="M180.417 40C175.23 40 171.221 38.3605 168.826 35.2592C166.094 31.7237 165.557 26.4961 167.269 20.1408C170.586 7.90658 180.116 0 191.549 0C196.068 0 199.189 1.28421 201.669 4.16842L201.928 4.44737C202.338 4.90658 202.957 5.59737 203.951 5.59737C204.719 5.59737 205.356 5.22632 205.743 4.55526L206.22 3.81184C207.411 1.88158 209.443 0.907895 212.265 0.907895H217.619C219.846 0.907895 221.516 1.54079 222.45 2.73947C223.389 3.94605 223.582 5.72763 223.016 7.89342L216.112 33.5763C215.145 37.2921 212.869 39.0197 208.952 39.0197H203.528C200.425 39.0197 198.296 38.0855 197.688 36.4553C197.233 35.3776 196.74 34.3566 195.923 34.0855C195.745 34.0039 195.496 33.9513 195.244 33.9513C194.544 33.9513 193.981 34.3553 193.567 34.7053C190.128 37.3118 185.848 39.9987 180.416 39.9987L180.417 40ZM195.777 10.1158C190.628 10.1158 186.715 13.6158 185.04 19.7158C184.093 23.2829 184.298 25.9684 185.645 27.7066C186.731 29.1039 188.48 29.8145 190.844 29.8145C196.063 29.8145 200.001 26.2882 201.653 20.1408C202.593 16.675 202.384 14.0289 201.031 12.2763C199.943 10.8632 198.125 10.1158 195.776 10.1158H195.777ZM80.2881 40C75.8335 40 72.4439 38.6632 70.4849 36.1342C68.5642 33.6539 68.139 30.1329 69.2557 25.9487L74.5394 6.35263C75.5064 2.63684 77.7807 0.90921 81.6974 0.90921H87.0527C89.2793 0.90921 90.9496 1.54211 91.8835 2.74211C92.8199 3.94868 93.016 5.73026 92.449 7.89474L88.221 23.4987C87.6249 25.7237 88.1614 27.0461 88.7164 27.7632C89.2674 28.475 90.4052 29.325 92.6888 29.325C96.342 29.325 98.9051 27.3053 99.9038 23.6408L104.556 6.35132C105.523 2.63553 107.797 0.907895 111.714 0.907895H117.068C119.294 0.907895 120.966 1.54079 121.9 2.74079C122.836 3.94737 123.032 5.72895 122.465 7.89342L115.56 33.5763C114.595 37.2921 112.319 39.0197 108.402 39.0197H102.975C99.9356 39.0197 97.8984 38.2684 97.0904 36.8461C96.7566 36.2526 96.5884 35.5118 96.3764 35.0803C96.0519 34.4053 95.3472 33.9105 94.5207 33.9105C93.8226 33.9105 93.1551 34.4237 92.9776 34.6039L92.1563 35.35C90.0012 37.0684 85.5493 39.9987 80.2881 39.9987V40ZM153.412 39.0211C149.909 39.0211 147.65 37.3803 146.081 33.6974L142.987 26.3605C142.731 25.7276 142.257 24.8829 141.081 24.8829C139.542 24.8829 139.192 26.2724 139.078 26.7289L137.248 33.5053C136.238 37.1118 133.739 39.0197 130.019 39.0197H124.382C122.155 39.0197 120.485 38.3868 119.551 37.1882C118.612 35.9816 118.419 34.2 118.986 32.0342L125.889 6.35132C126.856 2.63553 129.132 0.907895 133.049 0.907895H138.754C141.021 0.907895 142.713 1.54605 143.643 2.75395C144.566 3.95395 144.742 5.72763 144.153 7.88684L143.877 8.775C143.803 8.99474 143.705 9.28553 143.705 9.67632C143.705 10.8816 144.557 11.7579 145.729 11.7579C146.35 11.7579 146.892 11.4697 147.383 10.8816L153.639 3.89868C155.837 1.39737 158.293 0.90921 161.793 0.90921H167.924C170.065 0.90921 171.712 1.71316 172.221 3.01184C172.659 4.12763 172.156 5.45526 170.842 6.65658L160.828 16.1842C159.861 17.1434 159.114 18.8289 159.891 20.7132L164.616 31.8474C165.492 33.8882 165.506 35.7118 164.66 36.9855C163.787 38.2987 162.017 39.0211 159.681 39.0211H153.41H153.412ZM38.8354 39.0224C34.6152 39.0224 32.48 36.8947 32.48 32.7039V23.8842C32.48 22.7855 31.521 21.8566 30.3845 21.8566C29.6467 21.8566 29.0136 22.25 28.6507 22.9368L22.2437 34.4737C20.4648 37.6184 18.062 39.0211 14.4604 39.0211H6.35931C2.1392 39.0211 0 36.8947 0 32.7039V7.22631C0 3.03553 2.14052 0.90921 6.35931 0.90921H9.10649C13.3266 0.90921 15.4658 3.03553 15.4658 7.22631V17.025C15.4658 17.8066 15.7943 18.2882 16.0698 18.5539C16.4301 18.9026 16.9149 19.0947 17.4354 19.0947C18.213 19.0947 18.9269 18.6658 19.2938 17.975L26.1936 5.45658C27.9076 2.31184 30.2852 0.910526 33.9066 0.910526H38.2035C42.4236 0.910526 44.5628 3.03684 44.5628 7.22763V17.0263C44.5628 18.1934 45.453 19.1092 46.5868 19.1092C47.3564 19.1092 47.9935 18.7368 48.3803 18.0632L54.3926 5.63289C56.0244 2.32368 58.3067 0.910526 62.0168 0.910526H66.5257C68.9338 0.910526 70.6915 1.62632 71.477 2.93026C72.2638 4.23553 72.0677 6.11974 70.9246 8.23553L56.6231 34.4105C54.9184 37.6013 52.5408 39.0224 48.9114 39.0224H38.8354Z"></path>
</svg>
