<svg width="120" height="28" viewBox="0 0 120 28" fill="none" xmlns="http://www.w3.org/2000/svg">
<g clipPath="url(#clip0_461_3084)">
<path d="M0.118341 20.5054L0.946745 20.4454C1.83432 20.3854 1.98225 20.3255 1.98225 19.4561V3.41756L0 2.03854V1.88865L5.08876 0V10.8223C5.65089 8.60386 7.13018 7.37473 9.26036 7.37473C11.6272 7.37473 13.1657 8.69379 13.1657 12.531V19.4561C13.1657 20.2955 13.284 20.3854 14.2012 20.4454L15.0296 20.5054V21.2248H8.3432V20.5054L9.05325 20.4454C9.94083 20.3555 10.0592 20.3255 10.0592 19.4561V13.1306C10.0592 10.1328 9.20118 9.29336 7.72189 9.29336C6.36095 9.29336 5.11835 10.1927 5.11835 13.1606V19.4561C5.11835 20.2955 5.2071 20.3555 6.12426 20.4454L6.83432 20.5054V21.2248H0.118341V20.5054Z" fill="black"/>
<path d="M50.3845 19.9957C51.1573 20.0247 51.9206 19.8157 52.5738 19.3962L52.9289 20.0257C51.8638 20.8651 50.059 21.4047 48.5797 21.4047C46.3312 21.4047 45.2661 20.7452 45.2661 18.4368V9.50323H42.5146V9.35334L48.2543 4.9165H48.4318V7.82443H53.8164L52.7513 9.53321H48.4022V17.6874C48.4318 19.4261 49.201 19.9957 50.3845 19.9957Z" fill="black"/>
<path d="M54.9113 20.5055L55.7397 20.4455C56.5977 20.3855 56.7752 20.3256 56.7752 19.4562V11.0022L54.793 9.50331V9.35342L59.9113 7.2849V19.4562C59.9113 20.2956 60.0592 20.3855 60.9468 20.4455L61.7752 20.5055V21.2249H54.9409V20.5055H54.9113ZM58.3137 0.0600586C58.8165 0.121288 59.2798 0.36711 59.6159 0.751035C59.952 1.13496 60.1376 1.63037 60.1376 2.14357C60.1376 2.65677 59.952 3.15218 59.6159 3.5361C59.2798 3.92003 58.8165 4.16586 58.3137 4.22708C57.7746 4.20379 57.2642 3.97433 56.8854 3.58493C56.5066 3.19554 56.2875 2.67514 56.2723 2.12858C56.2799 1.58239 56.4974 1.06074 56.8786 0.674483C57.2598 0.288227 57.7746 0.0678072 58.3137 0.0600586Z" fill="black"/>
<path d="M63.1955 20.5054L64.0239 20.4454C64.9115 20.3855 65.0594 20.3255 65.0594 19.4562V3.41761L63.0771 2.03859V1.8887L68.1955 0.0300293V19.4861C68.1955 20.3255 68.3138 20.4155 69.231 20.4754L70.0594 20.5354V21.2549H63.2251V20.5054H63.1955Z" fill="black"/>
<path d="M71.4792 20.5055L72.3076 20.4455C73.1656 20.3855 73.3431 20.3256 73.3431 19.4562V11.0022L71.3608 9.50331V9.35342L76.4792 7.2849V19.4562C76.4792 20.2956 76.6271 20.3855 77.5147 20.4455L78.3431 20.5055V21.2249H71.5088V20.5055H71.4792ZM74.8816 0.0600586C75.3844 0.121288 75.8477 0.36711 76.1838 0.751035C76.5199 1.13496 76.7055 1.63037 76.7055 2.14357C76.7055 2.65677 76.5199 3.15218 76.1838 3.5361C75.8477 3.92003 75.3844 4.16586 74.8816 4.22708C74.3424 4.20379 73.8321 3.97433 73.4533 3.58493C73.0744 3.19554 72.8554 2.67514 72.8401 2.12858C72.8478 1.58239 73.0653 1.06074 73.4465 0.674483C73.8277 0.288227 74.3425 0.0678072 74.8816 0.0600586Z" fill="black"/>
<path d="M86.2131 19.9957C86.9859 20.0247 87.7492 19.8157 88.4024 19.3962L88.7575 20.0257C87.6924 20.8651 85.8876 21.4047 84.4083 21.4047C82.1598 21.4047 81.0948 20.7452 81.0948 18.4368V9.50323H78.3433V9.35334L84.0829 4.9165H84.2604V7.82443H89.645L88.58 9.53321H84.2308V17.6874C84.2308 19.4261 85.0297 19.9957 86.2131 19.9957Z" fill="black"/>
<path d="M92.2779 26.5312C92.2779 25.362 93.2838 24.4027 95.9169 23.983L97.1299 21.2849L92.337 9.89304C91.982 9.05364 91.7749 8.72387 90.9169 8.63394L90.3252 8.57398V7.85449H97.2483V8.57398L96.5382 8.63394C95.6802 8.69389 95.414 9.02366 95.7098 9.74314L98.8755 17.4177L102.041 10.3427C102.574 9.14357 102.16 8.69389 101.302 8.63394L100.444 8.57398V7.85449H105.532V8.57398L104.852 8.63394C103.994 8.72387 103.668 9.02366 103.254 9.95299L96.3607 25.332C95.5323 27.1607 94.911 28.0001 93.8163 28.0001C92.8696 27.9701 92.2779 27.3106 92.2779 26.5312Z" fill="black"/>
<path d="M120 5.09631C119.32 1.10915 115.533 -0.929388 111.923 0.539563C108.343 -0.929388 104.527 1.10915 103.846 5.09631H105.562C104.823 1.91858 108.55 -0.629602 111.243 0.839349C110.465 1.26932 109.831 1.92315 109.42 2.71821C109.01 3.51326 108.841 4.41385 108.935 5.30616C109.112 7.28474 110.385 8.84363 111.894 9.95284C113.402 8.84363 114.675 7.28474 114.852 5.30616C115.118 3.50744 114.083 1.70873 112.544 0.839349C115.207 -0.629602 118.965 1.91858 118.225 5.09631H120ZM113.757 5.2462C113.817 6.68517 113.077 8.24406 111.953 9.32329C110.799 8.24406 110.059 6.68517 110.148 5.2462C110.242 3.75409 110.886 2.35234 111.953 1.319C113.018 2.27832 113.639 3.83721 113.757 5.2462Z" fill="black"/>
<path d="M39.3786 7.28491C38.0176 7.28491 36.5975 8.30418 35.8283 10.7324V7.28491L30.71 9.35343V9.50333L32.6922 11.0023V19.4862C32.6922 20.3256 32.5739 20.4155 31.6567 20.4755L30.8283 20.5354V21.2549H38.3135V20.5055L36.923 20.4155C36.0354 20.3556 35.8283 20.3256 35.8283 19.4862V12.711C35.8283 11.302 36.6271 10.0429 36.9526 9.80311L39.9407 11.2721C40.6804 11.0922 41.3017 10.2528 41.3017 9.17356C41.3017 8.09433 40.5916 7.28491 39.3786 7.28491Z" fill="black"/>
<path d="M28.5798 15.9785C27.8105 18.6466 25.7691 19.456 24.1419 19.456C21.2425 19.456 19.3194 16.7879 19.3194 13.1005V12.7108H29.0827C28.2839 9.02343 25.71 7.43457 22.8105 7.43457C21.299 7.44743 19.8355 7.97461 18.6551 8.93146C17.4747 9.88831 16.6459 11.2193 16.3017 12.7108C16.1549 13.3189 16.0853 13.9435 16.0946 14.5695C16.0946 18.7665 18.7573 21.5845 22.8993 21.5845C26.1537 21.5845 28.5502 19.7857 29.2307 16.0084H28.5798V15.9785ZM22.7218 8.12408C24.4969 8.12408 25.3549 9.47312 25.4437 11.7215H19.4674C19.7928 9.38318 21.065 8.12408 22.7218 8.12408Z" fill="black"/>
</g>
<defs>
<clipPath id="clip0_461_3084">
<rect width="120" height="28" fill="white"/>
</clipPath>
</defs>
</svg>
