<svg fill="none" height="34" viewBox="0 0 206 34" width="206" xmlns="http://www.w3.org/2000/svg"><g fill="#000"><path d="m205.225 4.97457c.004.81699-.227 1.6167-.662 2.2978-.436.68111-1.056 1.21294-1.783 1.52815-.728.31522-1.529.39962-2.302.2425-.774-.15712-1.485-.54867-2.044-1.12507-.558-.57639-.939-1.31168-1.094-2.11271-.156-.80103-.078-1.63173.223-2.3869.301-.75516.811-1.40081 1.466-1.8551.656-.45429 1.426-.696782 2.214-.69679.526-.018067 1.05.075695 1.54.27551.49.19982.935.50146 1.308.88633s.666.84482.861 1.35153.288 1.04944.273 1.59475zm-1.802 2.24701c.541-.61547.841-1.41782.841-2.25013 0-.8323-.3-1.63466-.841-2.25013-.578-.57192-1.347-.89096-2.147-.89096-.799 0-1.568.31904-2.147.89096-.544.61349-.846 1.4166-.846 2.25013s.302 1.63664.846 2.25013c.579.57192 1.348.891 2.147.891.8 0 1.569-.31908 2.147-.891zm-1.237-.28007-.132-.87767c-.078-.51663-.246-.70336-.799-.70336h-.666v1.58103h-.913v-4.23265h2.006c.889 0 1.369.48552 1.369 1.18266-.005.26921-.101.52811-.271.73167-.17.20355-.403.33888-.66.38249.523.10582.721.41705.829.98347l.18.95236zm-1.597-3.42344v1.24489h.907c.462 0 .738-.24898.738-.62245 0-.37346-.258-.62244-.756-.62244z"/><path d="m11.9269.716797h-11.680806v32.553803h4.588246v-10.1022h7.13456c7.9874 0 12.954-4.4692 12.954-11.6709-.048-6.85308-4.7804-10.780703-12.996-10.780703zm8.4498 11.490303c0 4.7243-3.0028 7.2204-8.7441 7.2204h-6.79826v-14.31625h6.71416c6.0236.00623 8.8282 2.25945 8.8282 7.09585z"/><path d="m100.24 19.8513c-.3456 2.5316-1.4024 4.9019-3.0385 6.8157-1.5614 1.7491-3.8315 2.5956-6.9424 2.5956-6.4319 0-10.2754-4.5874-10.2754-12.2684 0-7.22655 4.3119-12.27455 10.4856-12.27455 2.9547 0 5.0867.76561 6.5221 2.3404 1.5645 1.80135 2.6291 4.00815 3.0806 6.38625l.054.249 4.57-1.3196-.054-.2303c-1.933-7.87391-6.7018-11.870009-14.1727-11.870009-9.9211 0-15.1099 8.409209-15.1099 16.718809 0 8.0918 3.9156 16.7127 14.8997 16.7127 9.9269 0 13.4169-7.0337 14.5999-12.9282l.048-.249-4.631-.9274z"/><path d="m128.644 14.9023h-16.263v-14.185503h-4.588v32.553803h4.588v-14.6274h16.263v14.6274h4.588v-32.553803h-4.588z"/><path d="m142.129.716797h-4.582v32.553803h4.582z"/><path d="m59.213.716797-12.5216 32.553803h4.8044l3.7355-10.0649h12.8398l3.7415 10.0649h4.8765l-12.5216-32.553803zm2.4502 4.817713 1.2011 3.64128 3.9036 10.37611h-10.1553l3.8375-10.34499z"/><path d="m31.4627 27.874c-3.3992-2.0167-3.7775-6.7162-1.4594-9.6977.1622-.1805.3243-.3548.4985-.5291.8441 1.1992 1.9682 2.1566 3.267 2.7823 3.1349 1.4317 7.0625 1.7615 9.6809-1.1017 2.09-2.3902 1.039-6.1062-1.4293-7.6623-2.7025-1.89844-6.48-1.89843-9.3626-.6535h-.03c.0356-.8615.241-1.70631.6035-2.48241.3626-.77609.8745-1.46706 1.5044-2.03035 3.6033-3.48569 9.777-2.07273 12.3294 2.0354l3.9937-3.03753c-1.44-1.81396-3.2569-3.26725-5.3149-4.2513-1.7773-.837496-3.7096-1.2625102-5.6619-1.2453079-1.9522.0172023-3.8773.4761889-5.6406 1.3448779-3.3391 1.78642-5.8494 5.34057-6.0055 9.33662-.0179.9333.0728 1.8654.2702 2.7762-7.6631 6.5356-5.2728 18.5737 6.1257 20.3725 4.0718.7034 8.3417-.8465 11.4706-3.5167l-3.243-3.853c-1.515 1.5228-3.4716 2.4862-5.5676 2.7416-2.0959.2553-4.2147-.2115-6.0291-1.3286zm7.1165-13.2643c.7748.2116 2.4023 1.1142 1.8017 1.9731-.3167.3069-.7136.5103-1.1411.5851-.9912.1806-2.0107.0907-2.9584-.2607-.9476-.3514-1.7908-.9522-2.4465-1.7435 1.4638-.7764 3.1505-.9734 4.7443-.554z"/><path d="m182.275 4.63272c4.402 0 7.146 1.58102 9.459 5.46508l.138.2241 3.993-3.11225-.132-.19919c-3.189-4.65588-7.344-6.846886-13.074-6.846886-7.837 0-11.344 4.711906-11.344 9.380236 0 6.77219 6.053 7.94859 10.918 8.89469 4.366.7905 8.876 1.6059 8.876 5.5584 0 3.187-2.618 5.2411-6.672 5.2411-4.486 0-7.573-1.662-10.318-5.5647l-.15-.2054-3.789 3.2491.12.1868c2.931 4.4629 7.699 6.8469 13.813 6.8469 6.942 0 11.41-3.8032 11.41-9.6915 0-6.9776-6.432-8.1602-11.152-9.0317-4.805-.915-8.642-1.637-8.642-5.37788 0-3.04376 2.57-5.0169 6.546-5.0169z"/><path d="m154.646 6.65448c3.153-3.28028 9.135-2.75119 11.759.94612l3.742-3.39232c-1.406-1.41366-3.093-2.49088-4.943-3.1558-3.994-1.506315-9.831-1.0581642-13.296 2.71385-1.301 1.29222-2.241 2.92454-2.721 4.72459-.48 1.80008-.482 3.70098-.006 5.50218-.697.6205-1.345 1.2969-1.94 2.0229-1.163 1.5528-1.907 3.3989-2.154 5.3484s.012 3.932.749 5.7436c1.856 4.3571 6.174 6.3116 10.023 6.7784 4.072.5353 8.264-1.1515 11.285-3.9214l-3.339-3.6973c-1.464 1.5795-3.384 2.6213-5.471 2.9673-2.086.346-4.224-.0227-6.09-1.0502-3.525-1.8673-4.114-6.5854-1.886-9.6852.21-.249.433-.498.661-.7469 1.125 1.4513 2.629 2.5352 4.334 3.1215s3.536.6501 5.275.1836c6.636-2.0914 4.6-9.5981-1.628-10.4508-2.192-.3507-4.435.0126-6.42 1.0395 0-.1556 0-.3175 0-.4793.106-1.72293.845-3.33816 2.066-4.51272zm3.802 7.78052c.877.0685 2.336.7345 2.606 1.5126.055.1221.073.2584.053.3914s-.079.2568-.167.3555c-1.171 1.2449-3.513.9399-5.081.2801-.771-.332-1.441-.874-1.939-1.5686 1.364-.8324 2.958-1.1676 4.528-.9523z"/></g></svg>